<svg width="15" height="15" viewBox="0 0 15 15" fill="none" xmlns="http://www.w3.org/2000/svg">
<mask id="mask0_18002_893" style="mask-type:alpha" maskUnits="userSpaceOnUse" x="0" y="0" width="15" height="15">
<rect x="0.804688" y="0.83493" width="13.509" height="13.509" fill="#D9D9D9"/>
</mask>
<g mask="url(#mask0_18002_893)">
<path d="M5.86943 10.9667C5.55985 10.9667 5.29483 10.8564 5.07437 10.636C4.85391 10.4155 4.74368 10.1505 4.74368 9.84093V3.08644C4.74368 2.77686 4.85391 2.51184 5.07437 2.29138C5.29483 2.07092 5.55985 1.96069 5.86943 1.96069H10.9353C11.2449 1.96069 11.5099 2.07092 11.7304 2.29138C11.9508 2.51184 12.061 2.77686 12.061 3.08644V9.84093C12.061 10.1505 11.9508 10.4155 11.7304 10.636C11.5099 10.8564 11.2449 10.9667 10.9353 10.9667H5.86943ZM5.86943 9.84093H10.9353V3.08644H5.86943V9.84093ZM3.61794 13.2182C3.30835 13.2182 3.04333 13.1079 2.82288 12.8875C2.60242 12.667 2.49219 12.402 2.49219 12.0924V4.21219H3.61794V12.0924H9.80955V13.2182H3.61794Z" fill="#FEFEFE"/>
</g>
</svg>
