<svg width="18" height="18" viewBox="0 0 18 18" fill="none" xmlns="http://www.w3.org/2000/svg">
<mask id="mask0_18002_1003" style="mask-type:alpha" maskUnits="userSpaceOnUse" x="0" y="0" width="18" height="18">
<rect x="0.875" y="0.197937" width="17.125" height="17.125" fill="#D9D9D9"/>
</mask>
<g mask="url(#mask0_18002_1003)">
<path d="M12.2904 16.6094L9.4362 13.7552L10.4352 12.7206L11.5768 13.8623V12.3282H7.29557C6.90313 12.3282 6.56717 12.1884 6.2877 11.909C6.00823 11.6295 5.86849 11.2935 5.86849 10.9011V6.61983H2.30078V5.19275H5.86849V3.65863L4.72682 4.8003L3.72786 3.76567L6.58203 0.911499L9.4362 3.76567L8.43724 4.8003L7.29557 3.65863V10.9011H16.5716V12.3282H13.0039V13.8623L14.1456 12.7206L15.1445 13.7552L12.2904 16.6094ZM11.5768 9.474V6.61983H8.72266V5.19275H11.5768C11.9693 5.19275 12.3052 5.33248 12.5847 5.61196C12.8642 5.89143 13.0039 6.22738 13.0039 6.61983V9.474H11.5768Z" fill="#FEFEFE"/>
</g>
</svg>
