<svg width="11" height="10" viewBox="0 0 11 10" fill="none" xmlns="http://www.w3.org/2000/svg">
<mask id="mask0_18002_225" style="mask-type:alpha" maskUnits="userSpaceOnUse" x="0" y="0" width="11" height="10">
<rect x="0.601562" y="0.0738297" width="9.71094" height="9.71094" fill="#D9D9D9"/>
</mask>
<g mask="url(#mask0_18002_225)">
<path d="M5.45573 6.54779L3.43262 4.52467L3.99909 3.93797L5.05111 4.98999V1.69232H5.86035V4.98999L6.91237 3.93797L7.47884 4.52467L5.45573 6.54779ZM3.02799 8.16628C2.80545 8.16628 2.61494 8.08704 2.45647 7.92856C2.29799 7.77008 2.21875 7.57957 2.21875 7.35703V6.14316H3.02799V7.35703H7.88346V6.14316H8.69271V7.35703C8.69271 7.57957 8.61347 7.77008 8.45499 7.92856C8.29652 8.08704 8.10601 8.16628 7.88346 8.16628H3.02799Z" fill="#FEFEFE"/>
</g>
</svg>
