<svg width="20" height="19" viewBox="0 0 20 19" fill="none" xmlns="http://www.w3.org/2000/svg">
<mask id="mask0_18002_1023" style="mask-type:alpha" maskUnits="userSpaceOnUse" x="0" y="0" width="20" height="19">
<rect x="0.820312" y="0.520874" width="18.4791" height="18.4791" fill="#D9D9D9"/>
</mask>
<g mask="url(#mask0_18002_1023)">
<path d="M3.8993 16.6901C3.47582 16.6901 3.1133 16.5393 2.81173 16.2377C2.51016 15.9362 2.35938 15.5736 2.35938 15.1502V9.76042H3.8993V15.1502H10.829V16.6901H3.8993ZM6.97916 13.6102C6.55568 13.6102 6.19315 13.4595 5.89158 13.1579C5.59001 12.8563 5.43923 12.4938 5.43923 12.0703V6.68057H6.97916V12.0703H13.9088V13.6102H6.97916ZM10.059 10.5304C9.63553 10.5304 9.27301 10.3796 8.97144 10.078C8.66987 9.77646 8.51908 9.41394 8.51908 8.99046V4.37068C8.51908 3.9472 8.66987 3.58467 8.97144 3.2831C9.27301 2.98153 9.63553 2.83075 10.059 2.83075H16.2187C16.6422 2.83075 17.0047 2.98153 17.3063 3.2831C17.6079 3.58467 17.7586 3.9472 17.7586 4.37068V8.99046C17.7586 9.41394 17.6079 9.77646 17.3063 10.078C17.0047 10.3796 16.6422 10.5304 16.2187 10.5304H10.059ZM10.059 8.99046H16.2187V5.9106H10.059V8.99046Z" fill="#FEFEFE"/>
</g>
</svg>
