<svg width="16" height="16" viewBox="0 0 16 16" fill="none" xmlns="http://www.w3.org/2000/svg">
<mask id="mask0_18002_1192" style="mask-type:alpha" maskUnits="userSpaceOnUse" x="0" y="0" width="16" height="16">
<rect x="0.582031" y="0.914124" width="14.7344" height="14.7344" fill="#D9D9D9"/>
</mask>
<g mask="url(#mask0_18002_1192)">
<path d="M1.8125 15.6485V13.1928H14.0911V15.6485H1.8125ZM4.26823 10.7371H5.12773L9.91641 5.96373L9.04155 5.08887L4.26823 9.87755V10.7371ZM3.04036 11.9649V9.3557L9.91641 2.49501C10.029 2.38246 10.1594 2.29548 10.3078 2.23409C10.4562 2.17269 10.6122 2.142 10.7759 2.142C10.9396 2.142 11.0982 2.17269 11.2517 2.23409C11.4052 2.29548 11.5433 2.38757 11.6661 2.51036L12.5103 3.36986C12.6331 3.48242 12.7226 3.61544 12.7789 3.76892C12.8351 3.9224 12.8633 4.081 12.8633 4.24472C12.8633 4.3982 12.8351 4.54912 12.7789 4.69749C12.7226 4.84586 12.6331 4.98144 12.5103 5.10422L5.64958 11.9649H3.04036Z" fill="#FEFEFE"/>
</g>
</svg>
