<svg width="20" height="20" viewBox="0 0 20 20" fill="none" xmlns="http://www.w3.org/2000/svg">
<path d="M10 19.175L8.55 17.875C6.86667 16.3583 5.475 15.05 4.375 13.95C3.275 12.85 2.4 11.8625 1.75 10.9875C1.1 10.1125 0.645833 9.30835 0.3875 8.57501C0.129167 7.84168 0 7.09168 0 6.32501C0 4.75835 0.525 3.45001 1.575 2.40001C2.625 1.35001 3.93333 0.825012 5.5 0.825012C6.36667 0.825012 7.19167 1.00835 7.975 1.37501C8.75833 1.74168 9.43333 2.25835 10 2.92501C10.5667 2.25835 11.2417 1.74168 12.025 1.37501C12.8083 1.00835 13.6333 0.825012 14.5 0.825012C16.0667 0.825012 17.375 1.35001 18.425 2.40001C19.475 3.45001 20 4.75835 20 6.32501C20 7.09168 19.8708 7.84168 19.6125 8.57501C19.3542 9.30835 18.9 10.1125 18.25 10.9875C17.6 11.8625 16.725 12.85 15.625 13.95C14.525 15.05 13.1333 16.3583 11.45 17.875L10 19.175Z" fill="#010101"/>
</svg>
