<svg width="18" height="19" viewBox="0 0 18 19" fill="none" xmlns="http://www.w3.org/2000/svg">
<path d="M12.5314 6.48C12.2274 5.92 11.7874 5.496 11.2114 5.208C10.6514 4.904 9.98738 4.752 9.21938 4.752C7.89138 4.752 6.82738 5.192 6.02737 6.072C5.22738 6.936 4.82738 8.096 4.82738 9.552C4.82738 11.104 5.24338 12.32 6.07538 13.2C6.92338 14.064 8.08338 14.496 9.55538 14.496C10.5634 14.496 11.4114 14.24 12.0994 13.728C12.8034 13.216 13.3154 12.48 13.6354 11.52H8.42738V8.496H17.3554V12.312C17.0514 13.336 16.5314 14.288 15.7954 15.168C15.0754 16.048 14.1554 16.76 13.0354 17.304C11.9154 17.848 10.6514 18.12 9.24338 18.12C7.57938 18.12 6.09138 17.76 4.77938 17.04C3.48338 16.304 2.46738 15.288 1.73138 13.992C1.01138 12.696 0.651375 11.216 0.651375 9.552C0.651375 7.888 1.01138 6.408 1.73138 5.112C2.46738 3.8 3.48338 2.784 4.77938 2.064C6.07538 1.328 7.55538 0.959999 9.21938 0.959999C11.2354 0.959999 12.9314 1.448 14.3074 2.424C15.6994 3.4 16.6194 4.752 17.0674 6.48H12.5314Z" fill="#FEFEFE"/>
</svg>
