<svg width="20" height="17" viewBox="0 0 20 17" fill="none" xmlns="http://www.w3.org/2000/svg">
<path d="M3.74256 0.248V17H0.382563V0.248H3.74256ZM14.4303 3.512C16.0143 3.512 17.2943 4.016 18.2703 5.024C19.2463 6.016 19.7343 7.408 19.7343 9.2V17H16.3743V9.656C16.3743 8.6 16.1103 7.792 15.5823 7.232C15.0543 6.656 14.3343 6.368 13.4223 6.368C12.4943 6.368 11.7583 6.656 11.2143 7.232C10.6863 7.792 10.4223 8.6 10.4223 9.656V17H7.06225V3.704H10.4223V5.36C10.8703 4.784 11.4383 4.336 12.1263 4.016C12.8303 3.68 13.5983 3.512 14.4303 3.512Z" fill="#FEFEFE"/>
</svg>
