<svg width="17" height="18" viewBox="0 0 17 18" fill="none" xmlns="http://www.w3.org/2000/svg">
<mask id="mask0_18002_1013" style="mask-type:alpha" maskUnits="userSpaceOnUse" x="0" y="0" width="17" height="18">
<rect x="0.246094" y="0.506531" width="16.5078" height="16.5078" fill="#D9D9D9"/>
</mask>
<g mask="url(#mask0_18002_1013)">
<path d="M8.4987 14.9509C6.97402 14.9509 5.67575 14.4207 4.60389 13.3603C3.53202 12.2999 2.99609 11.0188 2.99609 9.51707C2.99609 8.76046 3.13939 8.06117 3.42598 7.4192C3.71258 6.77723 4.10808 6.20404 4.61248 5.69963L8.4987 1.8822L12.3849 5.69963C12.8893 6.20404 13.2848 6.77723 13.5714 7.4192C13.858 8.06117 14.0013 8.76046 14.0013 9.51707C14.0013 11.0188 13.4654 12.2999 12.3935 13.3603C11.3216 14.4207 10.0234 14.9509 8.4987 14.9509ZM8.4987 13.5752V3.80811L5.57544 6.69698C5.17421 7.07528 4.87328 7.50231 4.67267 7.97806C4.47205 8.4538 4.37174 8.9668 4.37174 9.51707C4.37174 10.6291 4.77298 11.5834 5.57544 12.3801C6.3779 13.1769 7.35232 13.5752 8.4987 13.5752Z" fill="#FEFEFE"/>
</g>
</svg>
