<svg width="15" height="4" viewBox="0 0 15 4" fill="none" xmlns="http://www.w3.org/2000/svg">
<path d="M2.55859 3.82095C2.07734 3.82095 1.66536 3.6496 1.32266 3.30689C0.979948 2.96418 0.808594 2.5522 0.808594 2.07095C0.808594 1.5897 0.979948 1.17772 1.32266 0.835016C1.66536 0.492308 2.07734 0.320953 2.55859 0.320953C3.03984 0.320953 3.45182 0.492308 3.79453 0.835016C4.13724 1.17772 4.30859 1.5897 4.30859 2.07095C4.30859 2.5522 4.13724 2.96418 3.79453 3.30689C3.45182 3.6496 3.03984 3.82095 2.55859 3.82095ZM7.80859 3.82095C7.32734 3.82095 6.91536 3.6496 6.57266 3.30689C6.22995 2.96418 6.05859 2.5522 6.05859 2.07095C6.05859 1.5897 6.22995 1.17772 6.57266 0.835016C6.91536 0.492308 7.32734 0.320953 7.80859 0.320953C8.28984 0.320953 8.70182 0.492308 9.04453 0.835016C9.38724 1.17772 9.55859 1.5897 9.55859 2.07095C9.55859 2.5522 9.38724 2.96418 9.04453 3.30689C8.70182 3.6496 8.28984 3.82095 7.80859 3.82095ZM13.0586 3.82095C12.5773 3.82095 12.1654 3.6496 11.8227 3.30689C11.4799 2.96418 11.3086 2.5522 11.3086 2.07095C11.3086 1.5897 11.4799 1.17772 11.8227 0.835016C12.1654 0.492308 12.5773 0.320953 13.0586 0.320953C13.5398 0.320953 13.9518 0.492308 14.2945 0.835016C14.6372 1.17772 14.8086 1.5897 14.8086 2.07095C14.8086 2.5522 14.6372 2.96418 14.2945 3.30689C13.9518 3.6496 13.5398 3.82095 13.0586 3.82095Z" fill="#FEFEFE"/>
</svg>
