<svg width="22" height="22" viewBox="0 0 22 22" fill="none" xmlns="http://www.w3.org/2000/svg">
<path d="M9.99999 21.95V19.95C7.91665 19.7167 6.12915 18.8542 4.63749 17.3625C3.14582 15.8708 2.28332 14.0833 2.04999 12H0.0499878V9.99999H2.04999C2.28332 7.91665 3.14582 6.12915 4.63749 4.63749C6.12915 3.14582 7.91665 2.28332 9.99999 2.04999V0.0499878H12V2.04999C14.0833 2.28332 15.8708 3.14582 17.3625 4.63749C18.8542 6.12915 19.7167 7.91665 19.95 9.99999H21.95V12H19.95C19.7167 14.0833 18.8542 15.8708 17.3625 17.3625C15.8708 18.8542 14.0833 19.7167 12 19.95V21.95H9.99999ZM11 18C12.9333 18 14.5833 17.3167 15.95 15.95C17.3167 14.5833 18 12.9333 18 11C18 9.06665 17.3167 7.41665 15.95 6.04999C14.5833 4.68332 12.9333 3.99999 11 3.99999C9.06665 3.99999 7.41665 4.68332 6.04999 6.04999C4.68332 7.41665 3.99999 9.06665 3.99999 11C3.99999 12.9333 4.68332 14.5833 6.04999 15.95C7.41665 17.3167 9.06665 18 11 18ZM11 15C9.89999 15 8.95832 14.6083 8.17499 13.825C7.39165 13.0417 6.99999 12.1 6.99999 11C6.99999 9.89999 7.39165 8.95832 8.17499 8.17499C8.95832 7.39165 9.89999 6.99999 11 6.99999C12.1 6.99999 13.0417 7.39165 13.825 8.17499C14.6083 8.95832 15 9.89999 15 11C15 12.1 14.6083 13.0417 13.825 13.825C13.0417 14.6083 12.1 15 11 15Z" fill="#010101"/>
</svg>
