<svg width="24" height="24" viewBox="0 0 24 24" fill="none" xmlns="http://www.w3.org/2000/svg">
<mask id="mask0_18002_679" style="mask-type:alpha" maskUnits="userSpaceOnUse" x="0" y="0" width="24" height="24">
<rect x="0.5" y="0.5" width="23" height="23" fill="#D9D9D9" stroke="#404040"/>
</mask>
<g mask="url(#mask0_18002_679)">
<path d="M7 18V17V10C7 8.8344 7.3454 7.82165 8.04034 6.92517C8.73476 6.02937 9.62425 5.44971 10.7425 5.17014L11.5 4.98078V4.2V3.5C11.5 3.34552 11.5426 3.24661 11.6446 3.14461C11.7466 3.04261 11.8455 3 12 3C12.1545 3 12.2534 3.04261 12.3554 3.14461C12.4574 3.24661 12.5 3.34552 12.5 3.5V4.2V4.98078L13.2575 5.17014C14.3758 5.44971 15.2652 6.02937 15.9597 6.92517C16.6546 7.82165 17 8.8344 17 10V17V18H7Z" stroke="#FEFEFE" stroke-width="2"/>
</g>
</svg>
