<svg width="24" height="25" viewBox="0 0 24 25" fill="none" xmlns="http://www.w3.org/2000/svg">
<mask id="mask0_18092_293" style="mask-type:alpha" maskUnits="userSpaceOnUse" x="0" y="0" width="24" height="25">
<rect x="0.5" y="1" width="23" height="23" fill="#D9D9D9" stroke="#404040"/>
</mask>
<g mask="url(#mask0_18092_293)">
<path d="M7 18.5V17.5V10.5C7 9.3344 7.3454 8.32165 8.04034 7.42517C8.73476 6.52937 9.62425 5.94971 10.7425 5.67014L11.5 5.48078V4.7V4C11.5 3.84552 11.5426 3.74661 11.6446 3.64461C11.7466 3.54261 11.8455 3.5 12 3.5C12.1545 3.5 12.2534 3.54261 12.3554 3.64461C12.4574 3.74661 12.5 3.84552 12.5 4V4.7V5.48078L13.2575 5.67014C14.3758 5.94971 15.2652 6.52937 15.9597 7.42517C16.6546 8.32165 17 9.3344 17 10.5V17.5V18.5H7Z" stroke="#FEFEFE" stroke-width="2"/>
</g>
</svg>
