<svg width="24" height="24" viewBox="0 0 24 24" fill="none" xmlns="http://www.w3.org/2000/svg">
<path d="M19.8242 21.65L13.4742 15.3C12.9742 15.6833 12.3617 15.9875 11.6367 16.2125C10.9117 16.4375 10.1742 16.55 9.42422 16.55C7.44089 16.55 5.76172 15.8625 4.38672 14.4875C3.01172 13.1125 2.32422 11.4333 2.32422 9.45C2.32422 7.46667 3.01172 5.7875 4.38672 4.4125C5.76172 3.0375 7.44089 2.35 9.42422 2.35C11.4076 2.35 13.0867 3.0375 14.4617 4.4125C15.8367 5.7875 16.5242 7.46667 16.5242 9.45C16.5242 10.2 16.4201 10.9167 16.2117 11.6C16.0034 12.2833 15.6992 12.8917 15.2992 13.425L21.6742 19.8L19.8242 21.65ZM9.42422 13.9C10.6742 13.9 11.7284 13.4708 12.5867 12.6125C13.4451 11.7542 13.8742 10.7 13.8742 9.45C13.8742 8.2 13.4451 7.14583 12.5867 6.2875C11.7284 5.42917 10.6742 5 9.42422 5C8.17422 5 7.12005 5.42917 6.26172 6.2875C5.40339 7.14583 4.97422 8.2 4.97422 9.45C4.97422 10.7 5.40339 11.7542 6.26172 12.6125C7.12005 13.4708 8.17422 13.9 9.42422 13.9Z" fill="#FEFEFE"/>
</svg>
