<svg width="24" height="24" viewBox="0 0 24 24" fill="none" xmlns="http://www.w3.org/2000/svg">
<path d="M12.7133 2.00012C13.4696 2.00012 14.1543 2.42012 14.5324 3.04012C14.7164 3.34012 14.839 3.71012 14.8083 4.10012C14.7879 4.40012 14.8799 4.70012 15.0434 4.98012C15.5646 5.83012 16.7194 6.15012 17.6187 5.67012C18.6305 5.09012 19.9079 5.44012 20.4904 6.43012L21.1751 7.61012C21.7679 8.60012 21.4408 9.87012 20.4189 10.4401C19.5502 10.9501 19.2436 12.0801 19.7648 12.9401C19.9283 13.2101 20.1123 13.4401 20.3984 13.5801C20.7561 13.7701 21.0321 14.0701 21.2262 14.3701C21.6043 14.9901 21.5737 15.7501 21.2058 16.4201L20.4904 17.6201C20.1123 18.2601 19.4071 18.6601 18.6816 18.6601C18.3239 18.6601 17.9253 18.5601 17.5983 18.3601C17.3326 18.1901 17.026 18.1301 16.699 18.1301C15.6872 18.1301 14.839 18.9601 14.8083 19.9501C14.8083 21.1001 13.8681 22.0001 12.6929 22.0001H11.303C10.1175 22.0001 9.17735 21.1001 9.17735 19.9501C9.15691 18.9601 8.30868 18.1301 7.29695 18.1301C6.9597 18.1301 6.65311 18.1901 6.39762 18.3601C6.0706 18.5601 5.66181 18.6601 5.31435 18.6601C4.57854 18.6601 3.87339 18.2601 3.49526 17.6201L2.79011 16.4201C2.41199 15.7701 2.39155 14.9901 2.76967 14.3701C2.93319 14.0701 3.23977 13.7701 3.58724 13.5801C3.87339 13.4401 4.05734 13.2101 4.23107 12.9401C4.74205 12.0801 4.43546 10.9501 3.5668 10.4401C2.55506 9.87012 2.22804 8.60012 2.81055 7.61012L3.49526 6.43012C4.088 5.44012 5.35523 5.09012 6.37718 5.67012C7.26629 6.15012 8.4211 5.83012 8.9423 4.98012C9.10581 4.70012 9.19779 4.40012 9.17735 4.10012C9.15691 3.71012 9.26932 3.34012 9.4635 3.04012C9.84162 2.42012 10.5263 2.02012 11.2724 2.00012H12.7133ZM12.0082 9.18012C10.4037 9.18012 9.10581 10.4401 9.10581 12.0101C9.10581 13.5801 10.4037 14.8301 12.0082 14.8301C13.6126 14.8301 14.8799 13.5801 14.8799 12.0101C14.8799 10.4401 13.6126 9.18012 12.0082 9.18012Z" fill="#FEFEFE"/>
</svg>
