<svg width="15" height="17" viewBox="0 0 15 17" fill="none" xmlns="http://www.w3.org/2000/svg">
<path d="M11.8942 16.2346C11.2397 16.2346 10.6834 16.0055 10.2252 15.5474C9.76706 15.0892 9.53799 14.5329 9.53799 13.8784C9.53799 13.7999 9.55763 13.6166 9.5969 13.3286L4.07951 10.1085C3.87008 10.3049 3.62791 10.4587 3.35303 10.57C3.07814 10.6812 2.78362 10.7369 2.46946 10.7369C1.81496 10.7369 1.25865 10.5078 0.8005 10.0496C0.342354 9.59149 0.113281 9.03517 0.113281 8.38067C0.113281 7.72618 0.342354 7.16986 0.8005 6.71171C1.25865 6.25357 1.81496 6.0245 2.46946 6.0245C2.78362 6.0245 3.07814 6.08013 3.35303 6.19139C3.62791 6.30266 3.87008 6.45646 4.07951 6.65281L9.5969 3.4327C9.57071 3.34107 9.55435 3.25271 9.54781 3.16763C9.54126 3.08255 9.53799 2.98765 9.53799 2.88293C9.53799 2.22843 9.76706 1.67211 10.2252 1.21397C10.6834 0.755821 11.2397 0.526749 11.8942 0.526749C12.5487 0.526749 13.105 0.755821 13.5631 1.21397C14.0213 1.67211 14.2503 2.22843 14.2503 2.88293C14.2503 3.53742 14.0213 4.09374 13.5631 4.55189C13.105 5.01003 12.5487 5.2391 11.8942 5.2391C11.58 5.2391 11.2855 5.18347 11.0106 5.07221C10.7357 4.96094 10.4936 4.80714 10.2841 4.61079L4.76673 7.8309C4.79291 7.92253 4.80927 8.01088 4.81582 8.09597C4.82236 8.18105 4.82564 8.27595 4.82564 8.38067C4.82564 8.48539 4.82236 8.58029 4.81582 8.66538C4.80927 8.75046 4.79291 8.83882 4.76673 8.93045L10.2841 12.1506C10.4936 11.9542 10.7357 11.8004 11.0106 11.6891C11.2855 11.5779 11.58 11.5222 11.8942 11.5222C12.5487 11.5222 13.105 11.7513 13.5631 12.2095C14.0213 12.6676 14.2503 13.2239 14.2503 13.8784C14.2503 14.5329 14.0213 15.0892 13.5631 15.5474C13.105 16.0055 12.5487 16.2346 11.8942 16.2346Z" fill="#FEFEFE"/>
</svg>
