<svg width="20" height="20" viewBox="0 0 20 20" fill="none" xmlns="http://www.w3.org/2000/svg">
<path d="M6.00925 20C5.45925 20 4.98841 19.8042 4.59675 19.4125C4.20508 19.0208 4.00925 18.55 4.00925 18C4.00925 17.45 4.20508 16.9792 4.59675 16.5875C4.98841 16.1958 5.45925 16 6.00925 16C6.55925 16 7.03008 16.1958 7.42175 16.5875C7.81341 16.9792 8.00925 17.45 8.00925 18C8.00925 18.55 7.81341 19.0208 7.42175 19.4125C7.03008 19.8042 6.55925 20 6.00925 20ZM16.0092 20C15.4592 20 14.9884 19.8042 14.5967 19.4125C14.2051 19.0208 14.0092 18.55 14.0092 18C14.0092 17.45 14.2051 16.9792 14.5967 16.5875C14.9884 16.1958 15.4592 16 16.0092 16C16.5592 16 17.0301 16.1958 17.4217 16.5875C17.8134 16.9792 18.0092 17.45 18.0092 18C18.0092 18.55 17.8134 19.0208 17.4217 19.4125C17.0301 19.8042 16.5592 20 16.0092 20ZM4.20925 2H18.9592C19.3426 2 19.6342 2.17083 19.8342 2.5125C20.0342 2.85417 20.0426 3.2 19.8592 3.55L16.3092 9.95C16.1259 10.2833 15.8801 10.5417 15.5717 10.725C15.2634 10.9083 14.9259 11 14.5592 11H7.10925L6.00925 13H18.0092V15H6.00925C5.25925 15 4.69258 14.6708 4.30925 14.0125C3.92591 13.3542 3.90925 12.7 4.25925 12.05L5.60925 9.6L2.00925 2H0.00924683V0H3.25925L4.20925 2Z" fill="#010101"/>
</svg>
