<svg width="12" height="12" viewBox="0 0 12 12" fill="none" xmlns="http://www.w3.org/2000/svg">
<mask id="mask0_18002_215" style="mask-type:alpha" maskUnits="userSpaceOnUse" x="0" y="0" width="12" height="12">
<rect x="0.890625" y="0.828979" width="10.2006" height="10.2006" fill="#D9D9D9"/>
</mask>
<g mask="url(#mask0_18002_215)">
<path d="M8.11759 7.20437C7.82007 7.20437 7.56859 7.10166 7.36316 6.89623C7.15773 6.6908 7.05502 6.43932 7.05502 6.1418C7.05502 5.84429 7.15773 5.59281 7.36316 5.38738C7.56859 5.18195 7.82007 5.07924 8.11759 5.07924C8.4151 5.07924 8.66658 5.18195 8.87201 5.38738C9.07744 5.59281 9.18015 5.84429 9.18015 6.1418C9.18015 6.43932 9.07744 6.6908 8.87201 6.89623C8.66658 7.10166 8.4151 7.20437 8.11759 7.20437ZM5.99245 9.3295V8.73447C5.99245 8.56446 6.03673 8.40684 6.12527 8.26162C6.21382 8.11641 6.33956 8.01192 6.50248 7.94817C6.7575 7.84191 7.02137 7.76222 7.2941 7.70909C7.56682 7.65596 7.84132 7.6294 8.11759 7.6294C8.39385 7.6294 8.66835 7.65596 8.94107 7.70909C9.2138 7.76222 9.47767 7.84191 9.73269 7.94817C9.89561 8.01192 10.0214 8.11641 10.1099 8.26162C10.1984 8.40684 10.2427 8.56446 10.2427 8.73447V9.3295H5.99245ZM5.1424 5.92929C4.67487 5.92929 4.27464 5.76282 3.9417 5.42989C3.60876 5.09695 3.44229 4.69671 3.44229 4.22919C3.44229 3.76166 3.60876 3.36142 3.9417 3.02849C4.27464 2.69555 4.67487 2.52908 5.1424 2.52908C5.60993 2.52908 6.01016 2.69555 6.3431 3.02849C6.67604 3.36142 6.84251 3.76166 6.84251 4.22919C6.84251 4.69671 6.67604 5.09695 6.3431 5.42989C6.01016 5.76282 5.60993 5.92929 5.1424 5.92929ZM1.74219 9.3295V8.13943C1.74219 7.89858 1.8024 7.67721 1.92282 7.47533C2.04325 7.27344 2.20972 7.11937 2.42223 7.01311C2.84726 6.8006 3.28822 6.63767 3.74513 6.52433C4.20203 6.41099 4.66779 6.35432 5.1424 6.35432C5.39033 6.35432 5.63826 6.37557 5.8862 6.41807C6.13413 6.46057 6.38206 6.51016 6.62999 6.56683L5.90745 7.28938C5.77994 7.25396 5.65243 7.23094 5.52492 7.22031C5.39742 7.20968 5.26991 7.20437 5.1424 7.20437C4.73154 7.20437 4.32954 7.25396 3.93639 7.35313C3.54324 7.4523 3.16603 7.59398 2.80475 7.77816C2.73392 7.81358 2.68079 7.86316 2.64537 7.92692C2.60995 7.99067 2.59224 8.06151 2.59224 8.13943V8.47945H5.1424V9.3295H1.74219ZM5.1424 5.07924C5.37616 5.07924 5.57628 4.996 5.74275 4.82954C5.90922 4.66307 5.99245 4.46295 5.99245 4.22919C5.99245 3.99542 5.90922 3.7953 5.74275 3.62884C5.57628 3.46237 5.37616 3.37913 5.1424 3.37913C4.90864 3.37913 4.70852 3.46237 4.54205 3.62884C4.37558 3.7953 4.29235 3.99542 4.29235 4.22919C4.29235 4.46295 4.37558 4.66307 4.54205 4.82954C4.70852 4.996 4.90864 5.07924 5.1424 5.07924Z" fill="#FEFEFE"/>
</g>
</svg>
